<svg width="80" height="81" viewBox="0 0 80 81" fill="none" xmlns="http://www.w3.org/2000/svg">
<g id="simple-icons:zalo">
<path id="Vector" d="M41.6333 34.5578V33.0578H46.1233V54.1311H43.5567C43.0486 54.132 42.5609 53.9315 42.2004 53.5735C41.8399 53.2154 41.636 52.7292 41.6333 52.2211V52.2244C39.7591 53.5964 37.496 54.3344 35.1733 54.3311C32.2713 54.3311 29.4879 53.1787 27.4352 51.1272C25.3825 49.0758 24.2284 46.2932 24.2267 43.3911C24.2284 40.489 25.3825 37.7064 27.4352 35.6549C29.4879 33.6035 32.2713 32.4511 35.1733 32.4511C37.4949 32.4485 39.7567 33.1865 41.63 34.5578H41.6333ZM23.0633 26.2844V26.9678C23.0633 28.2411 22.8933 29.2811 22.0633 30.5011L21.9633 30.6144C21.6868 30.9245 21.4178 31.2413 21.1567 31.5644L6.74667 49.6511H23.0633V52.2111C23.0633 52.4635 23.0136 52.7135 22.9169 52.9466C22.8202 53.1798 22.6784 53.3916 22.4998 53.5699C22.3212 53.7483 22.1091 53.8896 21.8758 53.9859C21.6424 54.0822 21.3924 54.1315 21.14 54.1311H0V52.9244C0 51.4478 0.366667 50.7878 0.833333 50.1011L16.19 31.0844H0.64V26.2844H23.0667H23.0633ZM51.5667 54.1311C51.1423 54.1311 50.7354 53.9625 50.4353 53.6625C50.1352 53.3624 49.9667 52.9554 49.9667 52.5311V26.2844H54.77V54.1311H51.5667ZM68.9767 32.3178C70.4238 32.3173 71.8569 32.6019 73.1941 33.1553C74.5313 33.7087 75.7464 34.5201 76.77 35.5431C77.7936 36.5661 78.6057 37.7807 79.1599 39.1175C79.7141 40.4543 79.9996 41.8873 80 43.3344C80.0004 44.7816 79.7158 46.2147 79.1624 47.5519C78.609 48.889 77.7977 50.1041 76.7747 51.1277C75.7517 52.1513 74.5371 52.9634 73.2002 53.5176C71.8634 54.0718 70.4305 54.3573 68.9833 54.3578C66.0606 54.3586 63.2573 53.1985 61.19 51.1324C59.1228 49.0664 57.9609 46.2638 57.96 43.3411C57.9591 40.4184 59.1193 37.6151 61.1853 35.5478C63.2514 33.4805 66.054 32.3186 68.9767 32.3178ZM35.1767 49.8278C36.0345 49.8473 36.8876 49.6952 37.6858 49.3804C38.484 49.0656 39.2113 48.5945 39.8248 47.9947C40.4384 47.3949 40.926 46.6786 41.2588 45.8877C41.5917 45.0969 41.7632 44.2475 41.7632 43.3894C41.7632 42.5314 41.5917 41.682 41.2588 40.8911C40.926 40.1003 40.4384 39.3839 39.8248 38.7842C39.2113 38.1844 38.484 37.7132 37.6858 37.3985C36.8876 37.0837 36.0345 36.9316 35.1767 36.9511C33.4945 36.9894 31.8941 37.6845 30.7179 38.8878C29.5417 40.091 28.8832 41.7068 28.8832 43.3894C28.8832 45.072 29.5417 46.6878 30.7179 47.8911C31.8941 49.0943 33.4945 49.7895 35.1767 49.8278ZM68.9767 49.8178C70.6962 49.8178 72.3452 49.1347 73.5611 47.9188C74.7769 46.703 75.46 45.0539 75.46 43.3344C75.46 41.6149 74.7769 39.9659 73.5611 38.75C72.3452 37.5342 70.6962 36.8511 68.9767 36.8511C67.2572 36.8511 65.6081 37.5342 64.3923 38.75C63.1764 39.9659 62.4933 41.6149 62.4933 43.3344C62.4933 45.0539 63.1764 46.703 64.3923 47.9188C65.6081 49.1347 67.2572 49.8178 68.9767 49.8178Z" fill="#0045a8"/>
</g>
</svg>
