<svg width="81" height="81" viewBox="0 0 81 81" fill="none" xmlns="http://www.w3.org/2000/svg">
<g id="Group">
<path id="Vector" d="M40.5887 0.317871C18.002 0.317871 0.497925 16.8252 0.497925 39.1215C0.497925 50.7834 5.2901 60.8613 13.0905 67.8229C14.4373 69.0343 14.1599 69.7359 14.389 77.2153C14.407 77.7392 14.5529 78.2508 14.8141 78.7053C15.0752 79.1599 15.4436 79.5436 15.887 79.8231C16.3305 80.1026 16.8357 80.2693 17.3584 80.3088C17.8811 80.3482 18.4056 80.2591 18.886 80.0494C27.4203 76.2911 27.5299 75.9943 28.9768 76.3879C53.7023 83.1931 80.502 67.3697 80.502 39.1215C80.502 16.8252 63.1769 0.317871 40.5887 0.317871ZM64.6609 30.1791L52.8861 48.8204C52.4414 49.5213 51.8568 50.1229 51.1688 50.5874C50.4808 51.0518 49.7043 51.3692 48.888 51.5196C48.0716 51.67 47.233 51.6501 46.4246 51.4612C45.6163 51.2724 44.8557 50.9186 44.1905 50.422L34.8223 43.4104C34.4035 43.0963 33.8941 42.9265 33.3706 42.9265C32.8471 42.9265 32.3377 43.0963 31.9189 43.4104L19.2779 52.998C17.5907 54.2771 15.3809 52.256 16.5181 50.4704L28.2929 31.8292C28.7374 31.128 29.3219 30.5262 30.0099 30.0616C30.6979 29.597 31.4744 29.2796 32.2909 29.1292C33.1073 28.9788 33.946 28.9987 34.7544 29.1877C35.5628 29.3767 36.3234 29.7307 36.9885 30.2275L46.3535 37.2375C46.7723 37.5516 47.2817 37.7214 47.8052 37.7214C48.3287 37.7214 48.8381 37.5516 49.2569 37.2375L61.9043 27.6596C63.5882 26.3724 65.798 28.3919 64.6609 30.1791Z" fill="#0045a8"/>
</g>
</svg>
