<svg width="80" height="81" viewBox="0 0 80 81" fill="none" xmlns="http://www.w3.org/2000/svg">
<g id="perm_phone_msg" clip-path="url(#clip0_20_1911)">
<path id="Vector" d="M66.6667 51.9845C62.5 51.9845 58.5 51.3179 54.7667 50.0845C54.4333 49.9845 54.0667 49.9179 53.7333 49.9179C52.8667 49.9179 52.0333 50.2512 51.3667 50.8845L44.0333 58.2179C34.6 53.4179 26.8667 45.7179 22.0667 36.2845L29.4 28.9179C30.3333 28.0179 30.6 26.7179 30.2333 25.5512C29 21.8179 28.3333 17.8179 28.3333 13.6512C28.3333 11.8179 26.8333 10.3179 25 10.3179H13.3333C11.5 10.3179 10 11.8179 10 13.6512C10 44.9512 35.3667 70.3179 66.6667 70.3179C68.5 70.3179 70 68.8179 70 66.9845V55.3179C70 53.4845 68.5 51.9845 66.6667 51.9845ZM16.7667 16.9845H21.7667C22 19.9179 22.5 22.8179 23.3 25.6179L19.3 29.6512C17.9333 25.6179 17.0667 21.3845 16.7667 16.9845ZM63.3333 63.5512C58.9333 63.2512 54.6667 62.3845 50.6667 61.0179L54.6667 57.0179C57.5 57.8179 60.4 58.3179 63.3333 58.5179V63.5512ZM40 10.3179V43.6512L50 33.6512H70V10.3179H40ZM63.3333 26.9845H46.6667V16.9845H63.3333V26.9845Z" fill="#0045a8"/>
</g>
<defs>
<clipPath id="clip0_20_1911">
<rect width="80" height="80" fill="white" transform="translate(0 0.317871)"/>
</clipPath>
</defs>
</svg>
